<?xml version="1.0" encoding="utf-8"?>
<!-- Generator: Adobe Illustrator 27.7.0, SVG Export Plug-In . SVG Version: 6.00 Build 0)  -->
<svg version="1.1" id="Layer_1" xmlns="http://www.w3.org/2000/svg" xmlns:xlink="http://www.w3.org/1999/xlink" x="0px" y="0px"
	 viewBox="0 0 241.6 52.4" style="enable-background:new 0 0 241.6 52.4;" xml:space="preserve">
<style type="text/css">
	.st0{fill-rule:evenodd;clip-rule:evenodd;fill:#606062;}
	.st1{fill-rule:evenodd;clip-rule:evenodd;fill:#ED3237;}
	.st2{fill-rule:evenodd;clip-rule:evenodd;fill:#FEFEFE;}
	.st3{fill:#A9CB15;}
	.st4{fill:#A9CB16;}
	.st5{fill:#6FA100;}
	.st6{fill:#73A404;}
	.st7{fill:#A1C817;}
	.st8{fill:#7BAA05;}
	.st9{fill:#7BA905;}
	.st10{fill:#AACB15;}
	.st11{fill:#80AF0A;}
	.st12{fill:#92BA0D;}
	.st13{fill:#81B009;}
	.st14{fill:#8DB710;}
	.st15{fill:#8CB60E;}
	.st16{fill:#9BC213;}
	.st17{fill:#A0C716;}
	.st18{fill:#82B10A;}
	.st19{fill:#8DB60F;}
	.st20{fill:#93BD0F;}
	.st21{fill:#9AC112;}
	.st22{fill:#94BD0F;}
	.st23{fill:#9AC011;}
	.st24{fill:#8EB710;}
	.st25{fill:#94BC0E;}
	.st26{fill:#86B30B;}
	.st27{fill:#92BC0E;}
	.st28{fill:#A0C615;}
	.st29{fill:#9AC111;}
	.st30{fill:#89B20C;}
</style>
<g>
	<rect x="100.9" class="st0" width="140.7" height="35.3"/>
	<rect class="st1" width="102" height="35.3"/>
	<path class="st2" d="M11.7,29h5.5l1.9-4.8h8.8l2,4.8h5.6L25.6,6.3h-4.1L11.7,29L11.7,29z M26.2,20h-5.5l2.8-7.1L26.2,20L26.2,20z
		 M38,29h5V18.2L52.2,29h7l-11-12.2L58.3,6.3h-6.5L43,15.7V6.3h-5V29L38,29z M58.6,29l9.8-22.7h4.1L82.4,29h-5.6l-2-4.8H66L64.1,29
		H58.6L58.6,29z M73.1,20l-2.8-7.1L67.6,20H73.1L73.1,20z M84.6,29h5V6.3h-5V29L84.6,29z M116.2,18.3h11v-2.1h-11V8.4H128V6.3h-14.1
		V29h14.5v-2.1h-12.2V18.3L116.2,18.3z M135.8,6.3h-2.9V29h2.3V9.6h0.1L148.8,29h2.9V6.3h-2.3v19.2h-0.1L135.8,6.3L135.8,6.3z
		 M160.2,18.3h11v-2.1h-11V8.4H172V6.3h-14.1V29h14.5v-2.1h-12.2V18.3L160.2,18.3z M179.2,18.5h3.8l6.2,10.5h2.8l-6.5-10.8
		c1.2-0.1,2.3-0.4,3.2-1c0.9-0.5,1.5-1.2,2-2.1c0.4-0.8,0.7-1.8,0.7-2.8c0-1.4-0.3-2.5-0.9-3.4c-0.6-0.9-1.5-1.6-2.6-2
		c-1.1-0.4-2.4-0.7-4-0.7h-7V29h2.3V18.5L179.2,18.5z M179.2,8.4h4.1c1.4,0,2.5,0.2,3.3,0.5c0.8,0.3,1.4,0.8,1.8,1.4
		c0.4,0.6,0.5,1.3,0.5,2c0,0.7-0.2,1.4-0.5,2c-0.4,0.6-0.9,1.1-1.8,1.4c-0.8,0.4-1.9,0.5-3.3,0.5h-4.1V8.4L179.2,8.4z M214.4,8.8
		c-1-1-2.2-1.8-3.5-2.3c-1.3-0.5-2.9-0.8-4.7-0.8c-1.7,0-3.3,0.3-4.7,0.9c-1.4,0.6-2.7,1.4-3.8,2.5c-1.1,1.1-1.9,2.3-2.5,3.8
		c-0.6,1.4-0.9,3-0.9,4.8c0,1.7,0.3,3.3,0.9,4.8c0.6,1.4,1.4,2.7,2.5,3.8c1.1,1.1,2.3,1.9,3.8,2.5c1.4,0.6,3,0.9,4.7,0.9
		c0.9,0,1.9-0.1,2.9-0.3c1-0.2,2-0.4,3-0.8c1-0.3,1.9-0.8,2.7-1.3V16.2h-7.7v2.1h5.4v7.6c-0.6,0.3-1.2,0.6-1.9,0.8
		c-0.7,0.2-1.4,0.4-2.1,0.6c-0.7,0.1-1.5,0.2-2.3,0.2c-1.2,0-2.2-0.2-3.2-0.5c-1-0.3-1.8-0.8-2.6-1.4c-0.8-0.6-1.4-1.3-1.9-2.1
		c-0.5-0.8-0.9-1.7-1.2-2.7c-0.3-1-0.4-2-0.4-3c0-1.1,0.1-2.1,0.4-3c0.3-1,0.7-1.9,1.2-2.7c0.5-0.8,1.2-1.5,1.9-2.1
		c0.8-0.6,1.6-1.1,2.6-1.4c1-0.3,2-0.5,3.2-0.5c1.4,0,2.6,0.2,3.7,0.7c1.1,0.5,2,1.1,2.8,1.9L214.4,8.8L214.4,8.8z M228.1,19.2
		l8.5-12.9h-2.9L227,17l-6.8-10.7h-2.9l8.5,12.9V29h2.3V19.2z"/>
</g>
<g>
	<path class="st3" d="M203.8,40.8c0.3-0.5,0.7-1,1.2-1.4c0.7-0.6,1.5-1,2.3-1.4c0.7-0.3,1.5-0.4,2.2-0.4c1.1,0,2.2,0,3.2,0
		c1.3,0,2.6,0,3.8,0c0.2,0,0.3,0,0.5,0c0.1,0,0.2,0.1,0.2,0.2c0,0,0,0.1,0,0.1c0,0.7,0,1.5,0,2.2c0,0.2-0.1,0.3-0.2,0.2
		c-0.1-0.4-0.4-0.5-0.8-0.5c-3.5,0-7.1,0-10.6,0c-0.5,0-0.9,0.2-1.2,0.6C204.3,40.6,204.2,40.9,203.8,40.8z"/>
	<path class="st4" d="M219.3,40.3c-0.1-0.1-0.1-0.1-0.1-0.2c0-0.7,0-1.4,0-2.1c0-0.1,0-0.2,0-0.2c0-0.1,0.1-0.2,0.2-0.2
		c0.1,0,0.2,0,0.4,0c2.3,0,4.7,0,7,0c1.3,0,2.5,0.3,3.7,1c0.5,0.3,0.9,0.6,1.3,1c-0.3,0.3-0.6,0.2-0.9,0.2c-3.4,0-6.9,0-10.3,0
		C220,39.8,219.6,39.9,219.3,40.3z"/>
	<path class="st5" d="M200.4,52.4c-0.2,0-0.3,0-0.5,0c-2.1,0-4.2,0-6.2,0c-0.9,0-1.7-0.1-2.6-0.3c-0.7-0.2-1.4-0.4-2-0.9
		c-0.2-0.3-0.1-0.4,0.2-0.5c0.2-0.1,0.4-0.1,0.6-0.1c3.2,0,6.3,0,9.5,0c0.3,0,0.7-0.1,0.9,0.3C200.5,51.4,200.5,51.9,200.4,52.4z"/>
	<path class="st5" d="M230.6,51.2c-0.8,0.6-1.8,0.9-2.8,1.1c-0.7,0.1-1.4,0.1-2.1,0.1c-2,0-3.9,0-5.9,0c-0.1,0-0.3,0-0.4,0
		c-0.4-0.4-0.2-1-0.2-1.4c0-0.2,0.2-0.2,0.4-0.2c0.2,0,0.5,0,0.7,0c3.1,0,6.2,0,9.3,0c0.3,0,0.5,0,0.8,0.1
		C230.8,50.8,230.9,51,230.6,51.2z"/>
	<path class="st5" d="M217.2,52.4c-0.1,0-0.3,0-0.4,0c-2.2,0-4.4,0-6.6,0c-0.8,0-1.5-0.1-2.3-0.3c-0.6-0.1-1.1-0.3-1.6-0.7
		c-0.1-0.1-0.2-0.1-0.2-0.2c-0.1-0.1-0.3-0.1-0.2-0.3c0-0.1,0.2-0.2,0.3-0.2c0.2-0.1,0.3-0.1,0.5-0.1c3.4,0,6.8,0,10.2,0
		c0.1,0,0.2,0,0.3,0.1C217.3,51.3,217.3,51.8,217.2,52.4z"/>
	<path class="st6" d="M230.6,51.2c0-0.1,0-0.1,0.1-0.2c0-0.1,0-0.2-0.1-0.2c-0.1,0-0.2,0-0.4,0c-3.4,0-6.8,0-10.3,0
		c-0.1,0-0.2,0-0.4,0c-0.1,0-0.2,0.1-0.2,0.2c0,0.4-0.1,0.9,0.1,1.3c-0.1,0-0.2,0-0.2-0.1c-0.1-0.7,0-1.4,0-2.1
		c0.1-0.2,0-0.4,0.2-0.5c0.2-0.1,0.5-0.1,0.7-0.1c2.1,0,4.3,0,6.4,0c0.2,0,0.4,0,0.6,0c0.2-0.1,0.3,0,0.5,0c0.1,0,0.1,0,0.2-0.1
		c0.1,0,0.1,0,0.2-0.1c0.1,0,0.1,0,0.2-0.1c0.1,0,0.2,0,0.2-0.1c0.1,0,0.2-0.1,0.2-0.1c0.1,0,0.1,0,0.2,0c1-0.1,2,0,3,0
		c0.3,0,0.7,0.1,0.4,0.5C231.9,50.3,231.3,50.9,230.6,51.2z"/>
	<path class="st6" d="M217.2,50.7c-0.2,0.1-0.5,0.1-0.7,0.1c-3.2,0-6.5,0-9.7,0c-0.2,0-0.4,0-0.6,0.1c0,0-0.1,0.1-0.1,0.1
		c0,0.1,0,0.1,0.1,0.1c0.1,0.1,0.2,0.1,0.3,0.3c-0.3-0.1-0.6-0.3-0.8-0.5c-0.5-0.4-1.1-0.8-1.4-1.4c-0.1-0.4,0.2-0.4,0.4-0.4
		c1.3,0,2.6-0.2,3.9,0.2c0.7,0.3,1.4,0.3,2.2,0.3c2.1,0,4.2,0,6.2,0c0.3,0,0.5,0.1,0.5,0.5C217.2,50.3,217.3,50.6,217.2,50.7z"/>
	<path class="st6" d="M200.4,51c-0.2-0.1-0.5-0.1-0.7-0.1c-3.3,0-6.6,0-9.9,0c-0.1,0-0.2,0-0.4,0c-0.1,0-0.2,0-0.3,0.1
		c-0.1,0.1,0,0.2,0,0.3c-0.1-0.1-0.2-0.1-0.3-0.2c-0.5-0.4-1.1-0.8-1.5-1.4c-0.2-0.4,0.1-0.5,0.4-0.5c1.3,0,2.6-0.3,3.9,0.3
		c0.6,0.3,1.3,0.3,1.9,0.2c2-0.1,3.9,0,5.9,0c1,0,1,0,1,1C200.5,50.7,200.5,50.9,200.4,51z"/>
	<path class="st7" d="M219.3,40.3c0-0.1,0-0.2,0-0.2c0.1-0.4,0.2-0.4,0.5-0.4c0.1,0,0.3,0,0.4,0c3.6,0,7.2,0,10.7,0
		c0.3,0,0.5,0,0.8,0c0.9,0.7,1.5,1.6,1.9,2.7c-0.3,0.1-0.3-0.2-0.4-0.4c-0.2-0.2-0.3-0.4-0.6-0.4c-0.7,0-1.4,0-2.2,0
		c-0.2,0.2,0.2,0.5,0,0.7c-0.4-0.4-0.7-0.8-1.2-1.1c-0.6-0.4-1.2-0.6-1.9-0.7c-0.5-0.1-1-0.1-1.5-0.1c-1.9,0-3.9,0-5.8,0
		C219.7,40.4,219.5,40.5,219.3,40.3z"/>
	<path class="st7" d="M203.8,40.8c0.2-0.1,0.4-0.3,0.5-0.5c0.1-0.1,0.2-0.3,0.3-0.4c0.3-0.2,0.5-0.4,0.9-0.4c3.7,0,7.3,0,11,0
		c0.1,0,0.2,0,0.3,0c0.3,0,0.4,0.1,0.4,0.4c0,0.1-0.1,0.2-0.1,0.3c-0.2,0-0.4,0-0.6,0c-1.9,0-3.7,0-5.6,0c-0.5,0-1.1,0-1.6,0.1
		c-0.7,0.1-1.4,0.4-2,0.8c-0.2,0.1-0.3,0.2-0.5,0.3c-0.4-0.1-0.9,0.1-1.3,0c-0.1,0-0.2,0-0.4,0c-0.6,0-1.3-0.4-1.9,0.2
		C203.3,41.4,203.5,41.1,203.8,40.8z"/>
	<path class="st8" d="M200.4,51c0-0.3,0-0.6,0-0.9c0-0.1-0.1-0.2-0.2-0.2c-0.2,0-0.4,0-0.5,0c-2.1,0-4.2,0-6.3,0
		c-0.6,0-1.2-0.1-1.7-0.3c-0.4-0.1-0.7-0.2-1.1-0.2c-0.9,0-1.8,0-2.6,0c-0.3,0-0.3,0-0.4,0.4c-0.4-0.4-0.7-0.9-0.9-1.4
		c-0.1-0.2-0.2-0.4-0.2-0.6c-0.1-0.2-0.1-0.3,0-0.5c0.1-0.1,0.3-0.1,0.5-0.1c0.5,0.2,1,0.2,1.6,0.1c0.4-0.1,0.7,0.1,1,0.4
		c0.3,0.4,0.7,0.8,1.1,1c0,0,0,0,0.1,0c1,0.7,2.1,0.9,3.2,0.9c2,0,4,0,6,0c0.2,0,0.4,0,0.6,0c0.1,0,0.2,0.1,0.2,0.2
		c0,0.8,0,1.6,0,2.4c0,0.1,0,0.1-0.1,0.2C200.4,51.9,200.4,51.4,200.4,51z"/>
	<path class="st9" d="M217.2,50.7c0-0.2,0-0.5,0-0.7c0-0.1-0.1-0.2-0.2-0.2c-0.2,0-0.4,0-0.5,0c-2.1,0-4.2,0-6.3,0
		c-0.6,0-1.1-0.1-1.7-0.3c-0.4-0.1-0.8-0.2-1.3-0.2c-0.9,0-1.8,0-2.7,0c-0.2,0-0.4,0-0.4,0.3c-0.4-0.4-0.7-0.8-0.8-1.3
		c-0.1-0.1-0.1-0.2-0.1-0.3c-0.2-0.4,0-0.5,0.4-0.5c0.7,0,1.4,0.2,2-0.2c0.2-0.1,0.3,0.1,0.4,0.2c0.2,0.3,0.4,0.6,0.7,0.8
		c0.2,0.2,0.4,0.3,0.6,0.5c0.7,0.5,1.4,0.8,2.2,0.9c0.4,0,0.8,0,1.2,0c2,0,4,0,6,0c0.1,0,0.2,0,0.2,0c0.4,0,0.5,0,0.5,0.5
		c0,0.7,0,1.4,0,2.1c0,0.1,0,0.2-0.1,0.2C217.2,51.8,217.2,51.3,217.2,50.7z"/>
	<path class="st4" d="M219.3,47.3c0-0.2,0-0.4,0-0.5c0-1.8,0-3.6,0-5.4c0-0.1,0-0.2,0-0.4c0-0.1,0.1-0.2,0.2-0.2c0,0,0.1,0,0.1,0
		c0.7,0,1.5,0,2.2,0c0.3,0,0.3,0.1,0.3,0.3c0,0.3,0,0.6,0,0.9c0,1.8,0,3.6,0,5.4c0,0.2,0,0.4,0,0.6c-0.4-0.1-0.2-0.5-0.3-0.7
		c0-0.4,0-0.9,0-1.3c0-0.5,0-1,0-1.5c0-0.1,0,0,0-0.1c0-0.4,0.2-1-0.2-1.2c-0.5-0.3-1.1-0.1-1.7-0.1c-0.3,0-0.4,0.3-0.4,0.5
		c0,0.3,0,0.7,0,1c0,0.4,0,0.8,0,1.3c0,0.3,0,0.6,0,0.9C219.5,47.1,219.6,47.3,219.3,47.3z"/>
	<path class="st10" d="M185.8,45.7c-0.1-0.3-0.1-0.7-0.1-1c0-1.8,0-3.7,0-5.5c0-0.4,0-0.8,0-1.2c0-0.2,0.1-0.3,0.3-0.3
		c0.8,0,1.6,0,2.4,0c0.2,0,0.2,0.1,0.3,0.3c0,0,0,0.1,0,0.1c0,0.9,0,1.7-0.1,2.6c-0.2,0-0.2-0.1-0.2-0.2c-0.1-0.6-0.5-0.6-1-0.6
		c-1.3,0-1.3,0-1.4,1.4c0,0.3,0,0.6,0,0.9c0,0.6,0,1.1,0,1.7c0,0.4,0,0.7,0,1.1C185.9,45.1,186,45.4,185.8,45.7z"/>
	<path class="st11" d="M219.3,50.1c0,0.7,0,1.4,0,2.2c0-0.1-0.1-0.1-0.1-0.2c0-0.7,0-1.4,0-2.1c0-0.3,0.1-0.3,0.3-0.3
		c0.7,0,1.4,0,2.1,0c1.7,0,3.3,0,5,0c0.9,0,1.7-0.3,2.5-0.8c0.5-0.3,0.9-0.7,1.2-1.1c0.1-0.1,0.1-0.2,0.2-0.3
		c0.1-0.1,0.2-0.1,0.2-0.2c0.2-0.8,0.8-1,1.5-0.9c0.3,0,0.7,0,1.1,0c0.5,0,0.7,0.2,0.5,0.7c-0.1,0.4-0.2,0.8-0.5,1.2
		c-0.2-0.2-0.5-0.3-0.8-0.3c-0.5,0-1.1,0.1-1.6-0.1c-0.3-0.1-0.4,0.2-0.6,0.3c-0.5,0.5-0.9,1-1.7,1.1c0,0-0.1,0-0.1,0
		c0,0-0.1,0.1-0.1,0.1c-0.1,0-0.2,0-0.2,0c0,0-0.1,0.1-0.1,0.1c-0.1,0-0.2,0-0.2,0c0,0-0.1,0.1-0.1,0.1c-0.2,0-0.4,0-0.6,0
		c-0.1,0.1-0.3,0-0.5,0.1c-2.4,0-4.9,0-7.3,0C219.3,49.9,219.4,50,219.3,50.1z"/>
	<path class="st12" d="M209.6,46.3c-0.1-0.5,0-1.1,0-1.6c0-0.3,0-0.5,0-0.8c0-0.1,0.1-0.2,0.2-0.2c0.1,0,0.2,0,0.4,0
		c2.2,0,4.4,0,6.6,0c0.1,0,0.2,0,0.3,0c0.2,0,0.2,0.1,0.2,0.3c0,0.5,0,1,0,1.5c-0.1,0-0.1,0-0.2-0.1c-0.1-0.2-0.1-0.3-0.1-0.5
		c-0.1-0.3-0.3-0.3-0.5-0.3c-2,0-4,0-6,0c-0.6,0-0.5,0.4-0.6,0.8c0,0.3,0,0.6-0.1,0.8C209.8,46.2,209.7,46.3,209.6,46.3z"/>
	<path class="st9" d="M228.7,49.3c0.7-0.4,1.3-0.9,1.8-1.5c0.1-0.1,0.3-0.2,0.4-0.1c0.1,0.1,0.3,0.1,0.5,0.1c0.5,0,1,0,1.5,0
		c0.3,0,0.3,0,0.4,0.4c-0.2,0.6-0.5,1.1-1,1.5c0-0.1,0-0.2,0-0.4C231.2,49.3,229.9,49.3,228.7,49.3z"/>
	<path class="st13" d="M206.6,48.2c-0.3-0.1-0.4-0.3-0.6-0.5c-0.1-0.1-0.2-0.2-0.2-0.3c-0.1-0.1-0.1-0.1-0.3,0.1
		c-0.1,0.2-0.3,0.2-0.5,0.2c-0.5,0-1.1,0.1-1.6-0.1c-0.2,0-0.3,0.1-0.2,0.2c0,0.2,0.1,0.3,0.1,0.5c-0.3-0.4-0.4-0.8-0.5-1.2
		c-0.1-0.1,0-0.2-0.1-0.3c-0.2-1-0.2-1.1,1-1.1c0.4,0,0.9,0.1,1.3-0.3c0.1,0,0.1-0.1,0.2-0.1c0.3,0.3,0.2,0.8,0.4,1.1
		C205.8,47.1,206.2,47.7,206.6,48.2z"/>
	<path class="st14" d="M222,47.3c0,0.1,0,0.3,0,0.4c0,0.1,0,0.2,0.1,0.2c0,0.3,0.1,0.6,0.1,0.9c0,0.1-0.1,0.2-0.2,0.2
		c-0.1,0-0.2,0-0.3,0c-0.6,0-1.2,0-1.9,0c-0.1,0-0.3,0-0.4-0.1c-0.1-0.5,0-0.9,0-1.4c0-0.2,0.1-0.5,0.3-0.5
		C220.5,47.1,221.2,47,222,47.3z"/>
	<path class="st15" d="M185.8,45.7c0-0.3,0-0.6,0-0.8c0.1-0.1,0.1-0.2,0-0.3c0-0.4,0.1-0.5,0.5-0.5c0.6,0,1.3-0.1,1.9,0
		c0.1,0,0.1,0.1,0.2,0.1c0.1,0.5,0.1,1,0.2,1.5c0.1,0.4,0.2,0.7,0.3,1.1c-0.2,0.1-0.3-0.1-0.3-0.2c-0.2-0.5-0.5-0.5-0.9-0.5
		c-0.3,0-0.7,0-1.1,0c-0.2,0-0.5,0-0.6-0.4c0,0.6,0.4,1,0,1.5C185.8,46.6,185.7,46.2,185.8,45.7z"/>
	<path class="st16" d="M203.2,41.8c0.1,0,0.2-0.1,0.2-0.2c0.1-0.2,0.3-0.4,0.4-0.6c0.2,0,0.2,0.1,0.2,0.2c0.1,0.1,0.3,0.2,0.5,0.2
		c0.5,0,1.1,0,1.6,0c0.1,0,0.2,0,0.3-0.1c0.3-0.1,0.3-0.1,0.4,0.2c0,0,0,0,0,0c-0.1,0-0.1,0.1-0.1,0.1l0,0c-0.1,0-0.1,0.1-0.1,0.1
		c-0.4,0.6-0.7,1.2-1.1,1.8c-0.2-0.7-0.2-0.7-1-0.7c-0.1,0-0.2,0-0.3,0c-1.1,0-1.1,0-1.4,1.1c0,0.1-0.1,0.1-0.1,0.2
		c-0.1,0-0.1,0-0.2,0C202.6,43.3,202.8,42.5,203.2,41.8z"/>
	<path class="st17" d="M185.8,42c0-0.6,0-1.1,0-1.7c0-0.4,0.2-0.6,0.6-0.7c0.5,0,1,0,1.5,0c0.3,0,0.4,0.1,0.5,0.4c0,0.1,0,0.2,0,0.4
		c0,0.1,0.1,0.1,0.1,0.2c0,0.6,0,1.3,0,1.9c-0.3,0-0.3-0.3-0.3-0.5c0-0.3-0.2-0.4-0.5-0.4c-0.4,0-0.8,0-1.2,0
		C186.2,41.5,186.1,41.9,185.8,42z"/>
	<path class="st18" d="M186,47.1c0-0.3,0-0.6-0.1-0.9c-0.1-0.2,0-0.4,0-0.6c0.1,0,0.2,0.1,0.2,0.2c0.1,0.2,0.2,0.2,0.4,0.2
		c0.5,0,1.1,0,1.6,0c0.3,0,0.4,0.1,0.5,0.4c0,0.2,0.1,0.4,0.3,0.5c0.1,0.1,0.2,0.3,0.2,0.4c0.2,0.5,0.6,0.9,1,1.3
		c0.1,0.1,0.2,0.2,0.3,0.3c-0.1,0-0.3,0-0.4-0.2c-0.3-0.3-0.5-0.5-0.8-0.8c-0.1-0.1-0.2-0.2-0.3-0.3c-0.2-0.1-0.3-0.2-0.6-0.1
		c-0.4,0.1-0.9,0-1.3,0c-0.2,0-0.3-0.1-0.4-0.2c-0.1,0-0.2-0.1-0.3,0.1c-0.1,0.1-0.1,0.2,0,0.3c0.1,0.2,0.3,0.4,0.2,0.7
		C186.2,47.9,186.1,47.5,186,47.1z"/>
	<path class="st19" d="M205.1,45.4C205.1,45.4,205.1,45.5,205.1,45.4c-0.1,0.2-0.1,0.3-0.2,0.4c-0.1,0.1-0.3,0.1-0.5,0.1
		c-0.4,0-0.9,0-1.3,0c-0.3,0-0.5,0-0.4,0.5c0.1,0.2,0.1,0.5,0.1,0.7c-0.2-0.4-0.3-0.8-0.2-1.3c0-0.6-0.2-1.1,0.1-1.7v0
		c0.8-0.3,1.6-0.2,2.4-0.1c0.2,0,0.3,0.2,0.2,0.3C205.1,44.7,205.3,45.1,205.1,45.4z"/>
	<path class="st20" d="M233.7,42.7c0.2,0.6,0.4,1.2,0.3,1.8c-0.7-0.4-1.5-0.1-2.3-0.2c-0.2,0-0.3,0.2-0.3,0.4c0,0.3,0,0.6,0,0.9
		c-0.1,0.3,0,0.7-0.4,0.8c0.1-0.3,0.1-0.6,0.1-0.9c0.1-0.6,0-1.2-0.2-1.7c0-0.1-0.1-0.3-0.1-0.4c-0.2-0.6-0.1-0.8,0.6-0.8
		c0.6,0,1.1,0,1.7,0C233.4,42.5,233.6,42.6,233.7,42.7z"/>
	<path class="st21" d="M233.7,42.7c-0.3-0.1-0.5,0-0.8,0c-0.5,0-0.9,0-1.4,0c-0.1,0-0.3,0-0.4,0c-0.2,0-0.2,0.1-0.2,0.3
		c0,0.1,0,0.2,0,0.3c-0.2-0.4-0.4-0.7-0.6-1.1c0-0.3-0.2-0.4-0.3-0.5c-0.1-0.1-0.1-0.3,0.1-0.3c0.1,0,0.2,0,0.3,0c0.7,0,1.4,0,2.1,0
		c0.3,0,0.5,0.1,0.7,0.4c0.1,0.2,0.1,0.4,0.3,0.5C233.7,42.5,233.7,42.6,233.7,42.7z"/>
	<path class="st22" d="M205.1,45.4c0-0.4,0-0.7,0.1-1.1c0-0.1,0-0.2-0.1-0.2c-0.1,0-0.3,0-0.4,0c-0.7,0-1.4,0-2,0
		c0-0.4,0.1-0.7,0.2-1.1c0.1-0.2,0.2-0.3,0.4-0.3c0.7,0,1.5,0,2.2,0c0.2,0,0.2,0.1,0.2,0.2c-0.1,0.2-0.2,0.4-0.2,0.6
		c-0.1,0.6-0.2,1.2-0.2,1.9C205.2,45.5,205.2,45.5,205.1,45.4L205.1,45.4z"/>
	<path class="st23" d="M185.8,42c0.1-0.1,0.1-0.2,0.1-0.4c0-0.1,0.1-0.2,0.2-0.2c0.7,0,1.3,0,2,0c0.1,0,0.2,0.1,0.2,0.2
		c0,0.2,0,0.4,0,0.5c0,0.1,0,0.2,0.1,0.3c0,0.5,0,1.1,0,1.6c0,0.1-0.1,0.1-0.1,0c-0.1-0.1-0.2-0.3-0.2-0.5c0.1-0.5-0.2-0.8-0.7-0.7
		c-0.2,0-0.3,0-0.5,0c-0.5,0-1,0-1,0.7c0,0.1-0.1,0.1-0.2,0.1C185.8,43.2,185.8,42.6,185.8,42z"/>
	<path class="st24" d="M231.3,45.5c0-0.4,0-0.7,0-1.1c0-0.2,0.1-0.3,0.3-0.3c0.2,0,0.4,0,0.6,0c0.4,0,0.7,0,1.1,0
		c0.2,0,0.3-0.1,0.5,0c0.2,0,0,0.3,0.2,0.4c0.1,0.6,0,1.5-0.1,2c-0.3-0.3-0.2-0.7-0.1-1C233,45.7,232.2,45.6,231.3,45.5z"/>
	<path class="st25" d="M222,47.3c-0.7,0-1.4,0-2.1,0c-0.4,0-0.5,0.1-0.5,0.5c0,0.2,0,0.4,0,0.6c0,0.2,0,0.5,0,0.7
		c-0.1,0-0.1-0.1-0.1-0.2c0-0.5-0.1-1.1,0-1.6c0.1-0.1,0.1-0.2,0.1-0.3c0-0.3,0-0.7,0-1c0.4-0.3,0.8-0.2,1.2-0.2
		c0.4,0,0.9,0,1.2-0.3c0.2,0.1,0.1,0.4,0.2,0.5C222,46.4,222,46.9,222,47.3z"/>
	<path class="st26" d="M231.3,45.5c0.2-0.1,0.4-0.1,0.6-0.1c0.6,0,1.3,0,1.9,0c0,0.3,0,0.7,0,1.1c0,0.2,0,0.3-0.1,0.5
		c0-0.1,0-0.2,0-0.2c0-0.2-0.1-0.3-0.2-0.3c-0.7,0-1.4,0-2.1,0c-0.2,0-0.3,0.1-0.4,0.2c-0.1,0.2-0.2,0.3-0.2,0.5
		c-0.1,0.1-0.1,0.2-0.3,0.2c0.2-0.4,0.3-0.7,0.5-1.1C231.3,46.1,231.3,45.8,231.3,45.5z"/>
	<path class="st19" d="M209.6,46.3C209.7,46.2,209.7,46.2,209.6,46.3c0.4-0.2,0.7-0.2,1-0.2c1.8,0,3.6,0,5.3,0c0.6,0,1,0,1.2-0.7
		c0,0,0.1,0,0.1,0c0.1,1.2,0.1,0.9-0.9,1c-2,0-4.1,0-6.1,0c-0.2,0-0.4,0-0.5,0C209.7,46.4,209.7,46.3,209.6,46.3z"/>
	<path class="st22" d="M202.7,44.1c-0.1,0.6-0.1,1.1-0.1,1.7c-0.2-0.6-0.1-1.1,0-1.7C202.6,44.1,202.6,44.1,202.7,44.1z"/>
	<path class="st27" d="M188.4,44.1c0,0,0.1,0,0.1,0c0,0.5,0.1,1,0.1,1.5c0,0-0.1-0.1-0.1-0.1C188.5,45.1,188.3,44.6,188.4,44.1z"/>
	<path class="st19" d="M205.1,45.4c0,0,0.1,0,0.1,0c0.1,0.4,0.2,0.7,0.2,1.1c-0.2-0.1-0.2-0.3-0.2-0.4
		C205.2,45.8,205.2,45.6,205.1,45.4z"/>
	<path class="st7" d="M206.7,41.7c0-0.1,0.1-0.1,0.1-0.1C206.8,41.6,206.7,41.7,206.7,41.7z"/>
	<path class="st7" d="M206.6,41.8c0-0.1,0.1-0.1,0.1-0.1C206.7,41.7,206.6,41.8,206.6,41.8z"/>
	<path class="st9" d="M226.7,49.8c0.1-0.2,0.3-0.1,0.5-0.1C227.1,49.8,226.9,49.8,226.7,49.8z"/>
	<path class="st9" d="M219.3,50.1c0-0.1,0-0.3,0.1-0.3C219.4,49.9,219.4,50,219.3,50.1z"/>
	<path class="st9" d="M228.5,49.4c0,0,0.1-0.1,0.1-0.1C228.6,49.4,228.5,49.4,228.5,49.4z"/>
	<path class="st9" d="M228.1,49.6c0,0,0.1-0.1,0.1-0.1C228.2,49.5,228.2,49.5,228.1,49.6z"/>
	<path class="st9" d="M227.8,49.7c0,0,0.1-0.1,0.1-0.1C227.9,49.6,227.8,49.6,227.8,49.7z"/>
	<path class="st28" d="M219.4,44.7c0-0.4,0-0.8,0-1.2c0-0.4,0.2-0.6,0.6-0.6c0.5,0,1,0,1.5,0c0.1,0,0.2,0,0.2,0
		c0.2,0.1,0.3,0.2,0.3,0.4c0,0.4,0,0.7,0,1.1c-0.1,0.2-0.2,0.3-0.4,0.3C220.9,44.9,220.1,45.1,219.4,44.7z"/>
	<path class="st29" d="M219.4,44.7c0.6,0,1.2,0,1.8,0c0.3,0,0.5-0.1,0.7-0.2c0,0.5,0,1,0,1.5c-0.1-0.1-0.1-0.3-0.2-0.3
		c0,0-0.1,0-0.1,0.1c0,0.2-0.1,0.3-0.3,0.3c-0.7,0-1.4,0-2.1,0C219.4,45.6,219.4,45.2,219.4,44.7z"/>
	<path class="st27" d="M185.8,43.8c0.1-0.1,0.1-0.2,0.1-0.3c0-0.2,0-0.3,0-0.5c0-0.1,0.1-0.2,0.2-0.2c0.2,0,0.3,0,0.5,0
		c0.5,0,1.1,0.1,1.6-0.1c0.1,0,0.2,0.1,0.2,0.2c0,0.4,0,0.8,0,1.2c-0.6,0-1.2,0-1.8,0c-0.1,0-0.2,0-0.3,0c-0.4,0-0.4,0-0.4,0.4
		c0,0.1,0,0.2-0.1,0.3C185.8,44.5,185.8,44.1,185.8,43.8z"/>
	<path class="st19" d="M209.7,45.4c0-0.3,0-0.5,0-0.8c0-0.2,0.1-0.3,0.3-0.3c0.1,0,0.3,0,0.4,0c2,0,4,0,6,0c0.1,0,0.2,0,0.2,0
		c0.4,0,0.4,0,0.5,0.5c0,0,0,0.1,0,0.1c0,0.5-0.3,0.7-0.8,0.7c-2,0-4,0-6,0C210.2,45.6,209.9,45.6,209.7,45.4z"/>
	<path class="st30" d="M209.7,45.4c2.2,0,4.4,0,6.5,0c0.1,0,0.3,0,0.4,0c0.2,0,0.4-0.1,0.4-0.3c0,0,0.1-0.1,0.1-0.1
		c0,0.2,0,0.3,0,0.5c0,0.2,0,0.4,0,0.6c0,0.1-0.1,0.2-0.2,0.2c-0.1,0-0.2,0-0.2,0c-2.3,0-4.6,0-7,0C209.7,46,209.7,45.7,209.7,45.4z
		"/>
</g>
</svg>
