<?xml version="1.0" encoding="utf-8"?>
<!-- Generator: Adobe Illustrator 16.0.0, SVG Export Plug-In . SVG Version: 6.00 Build 0)  -->
<!DOCTYPE svg PUBLIC "-//W3C//DTD SVG 1.1//EN" "http://www.w3.org/Graphics/SVG/1.1/DTD/svg11.dtd">
<svg version="1.1" id="Layer_1" xmlns="http://www.w3.org/2000/svg" xmlns:xlink="http://www.w3.org/1999/xlink" x="0px" y="0px"
	 width="241.647px" height="35.132px" viewBox="0 0 241.647 35.132" enable-background="new 0 0 241.647 35.132"
	 xml:space="preserve">
<g>
	
		<rect x="100.413" fill-rule="evenodd" clip-rule="evenodd" fill="#59585D" stroke="#59585D" stroke-width="0.2135" width="141.234" height="35.132"/>
	
		<rect fill-rule="evenodd" clip-rule="evenodd" fill="#E72429" stroke="#E72429" stroke-width="0.2135" width="101.485" height="35.132"/>
	<g>
		<path fill="#FFFFFF" d="M21.372,6.27h4.119l9.821,22.586h-5.614l-1.946-4.784h-8.772l-1.879,4.784h-5.488L21.372,6.27z
			 M23.286,12.844l-2.743,7.02h5.519L23.286,12.844z"/>
		<path fill="#FFFFFF" d="M37.764,6.27h4.979v9.382l8.772-9.382h6.507L47.974,16.768l10.909,12.088h-6.952l-9.188-10.718v10.718
			h-4.979V6.27z"/>
		<path fill="#FFFFFF" d="M68.032,6.27h4.119l9.822,22.586h-5.614l-1.945-4.784h-8.771l-1.885,4.784h-5.486L68.032,6.27z
			 M69.947,12.844l-2.744,7.02h5.52L69.947,12.844z"/>
		<path fill="#FFFFFF" d="M84.17,6.27h4.979v22.586H84.17V6.27z"/>
	</g>
	<g>
		<path fill="#FFFFFF" d="M115.62,26.754h12.092v2.102h-14.387V6.27h14.001v2.109H115.62v7.689h10.943v2.104H115.62V26.754z"/>
		<path fill="#FFFFFF" d="M148.568,25.414h0.064V6.27h2.296v22.586h-2.869l-13.465-19.33h-0.063v19.33h-2.297V6.27h2.871
			L148.568,25.414z"/>
		<path fill="#FFFFFF" d="M159.347,26.754h12.09v2.102h-14.384V6.27h14.002v2.109h-11.708v7.689h10.943v2.104h-10.943V26.754z"/>
		<path fill="#FFFFFF" d="M178.261,28.855h-2.297V6.27h6.953c4.596,0,7.436,1.979,7.436,6.03c0,3.127-2.075,5.522-5.773,5.838
			l6.509,10.718h-2.811l-6.19-10.494h-3.826V28.855z M178.261,16.258h4.084c4.115,0,5.52-1.789,5.52-3.958s-1.404-3.921-5.52-3.921
			h-4.084V16.258z"/>
		<path fill="#FFFFFF" d="M211.563,10.422c-1.532-1.633-3.669-2.619-6.444-2.619c-5.807,0-9.281,4.562-9.281,9.764
			c0,5.199,3.475,9.762,9.281,9.762c2.33,0,4.561-0.641,6.251-1.595v-7.562h-5.391v-2.104h7.688v11.068
			c-2.521,1.496-5.805,2.291-8.549,2.291c-6.732,0-11.772-5.004-11.772-11.861c0-6.859,5.04-11.868,11.772-11.868
			c3.568,0,6.158,1.022,8.164,3.03L211.563,10.422z"/>
		<path fill="#FFFFFF" d="M226.935,28.855h-2.299v-9.727L216.185,6.27h2.87l6.728,10.658l6.733-10.658h2.871l-8.452,12.859V28.855z"
			/>
	</g>
</g>
</svg>
